<?xml version="1.0" encoding="utf-8"?>
<!-- Generator: Adobe Illustrator 15.0.0, SVG Export Plug-In . SVG Version: 6.00 Build 0)  -->
<!DOCTYPE svg PUBLIC "-//W3C//DTD SVG 1.1//EN" "http://www.w3.org/Graphics/SVG/1.1/DTD/svg11.dtd">
<svg version="1.1"  xmlns="http://www.w3.org/2000/svg" xmlns:xlink="http://www.w3.org/1999/xlink" x="0px" y="0px"
	 width="48px" height="48px" viewBox="0 0 48 48" enable-background="new 0 0 48 48" xml:space="preserve">
<g>
	<line fill="#FFFFFF" stroke="#FFCC80" stroke-width="17" x1="11.969" y1="37" x2="26.061" y2="22.909"/>
	<path fill="#FFCC80" d="M24,11l-6.081-0.137c-1.078-0.003-2.014,0.269-2.657,0.995c-0.626,0.549-1.064,1.374-1.228,2.516L13,19
		c-0.001,3.677,0.067,6.488,2.371,9.105c0.126,0.162,0.261,0.321,0.415,0.476l4.569,4.569c3.389,3.388,8.926,3.536,12.313,0.149
		c0,0,3.208-3.208,7.204-7.204L24,11z"/>
	<path fill="#FFCC80" d="M34.443,23.533c-1.064,1.065-1.038,2.833,0.059,3.929c1.095,1.097,2.862,1.123,3.928,0.058l2.818-2.821
		c1.064-1.063,1.039-2.828-0.059-3.926c-1.096-1.097-2.861-1.123-3.926-0.059L34.443,23.533z"/>
	<path fill="#FFCC80" d="M30.428,19.611c-1.065,1.064-1.056,2.815,0.039,3.912c1.098,1.098,2.88,1.14,3.945,0.074l4.861-4.86
		c1.063-1.065,1.037-2.83-0.059-3.927c-1.097-1.097-2.863-1.123-3.929-0.059L30.428,19.611z"/>
	<path fill="#FFCC80" d="M26.354,15.714c-1.064,1.065-1.056,2.815,0.041,3.913c1.098,1.097,2.88,1.137,3.945,0.072l6.274-6.276
		c1.065-1.065,1.039-2.831-0.058-3.928C35.461,8.4,33.694,8.373,32.63,9.438L26.354,15.714z"/>
	<path fill="#FFCC80" d="M23.215,10.882c-1.065,1.065-1.056,2.816,0.041,3.913c1.096,1.096,2.88,1.138,3.943,0.072l4.103-4.102
		c1.064-1.063,1.039-2.829-0.059-3.927c-1.097-1.097-2.864-1.123-3.927-0.059L23.215,10.882z"/>
</g>
<g>
	<path fill="#FFEBEE" d="M35.287,24.036c-0.77,0.787-0.795,2.012-0.05,2.74c0.739,0.723,1.969,0.674,2.736-0.112
		C38.744,25.878,36.059,23.251,35.287,24.036"/>
	<path fill="#FFEBEE" d="M31.303,20.052c-0.771,0.786-0.797,2.01-0.051,2.737c0.74,0.725,1.969,0.675,2.735-0.11
		C34.76,21.893,32.071,19.267,31.303,20.052"/>
</g>
<g>
	<path fill="none" stroke="#FF6E40" stroke-width="2" d="M11,16c0-5,3-8,8-8"/>
	<path fill="none" stroke="#FF6E40" stroke-width="2" d="M27,39c7,0,12-8,12-8"/>
	<path fill="none" stroke="#FF6E40" stroke-width="2" d="M33,41c0,0,3-1,6-4"/>
</g>
<g>
	<path fill="#F2A86B" d="M38.477,27.473c-1.065,1.064-2.833,1.038-3.928-0.058c-1.097-1.096-1.123-2.863-0.057-3.93
		c-0.672,0.672-1.621,0.907-2.506,0.719c-0.461,1.59-0.016,3.291,1.234,4.539c0.751,0.752,1.693,1.183,2.666,1.324
		C37.183,28.778,38.477,27.473,38.477,27.473z"/>
	<path fill="#F2A86B" d="M23,11.001c0.546,0.11,1.2,0.753,1.593,1.146l3.987,3.984c1.1,1.102,1.1,2.885,0,3.986
		c-1.102,1.1-2.886,1.1-3.987,0l-2.718-2.719l0.062,2.719l1.328,1.328c1.832,1.83,4.812,1.83,6.644,0
		c1.83-1.832,1.166-4.146-0.664-5.979c0,0,0.645,0.645-1.339-1.338C25.259,11.483,23,11.001,23,11.001z"/>
	<path fill="#F2A86B" d="M34.492,23.485c-1.066,1.066-2.833,1.041-3.931-0.057c-1.04-1.041-1.104-2.682-0.194-3.758l-2.487,2.488
		c0.157,0.947,0.61,1.854,1.354,2.598c0.752,0.753,1.694,1.182,2.668,1.326C33.196,24.792,34.492,23.485,34.492,23.485z"/>
	<polygon fill="#F2A86B" points="31.243,10.825 25.928,13.481 27.257,14.811 	"/>
	<polygon fill="#F2A86B" points="36.557,13.481 29.915,17.467 30.367,19.671 	"/>
	<circle fill="#F2A86B" cx="19" cy="31" r="1"/>
	<path fill="#F2A86B" d="M23.156,18.679l-1.281-1.279l-0.9-0.088c0,0,2.244,7.642-2.665,12.966l1.347,1.504
		C23.906,27.287,23.675,21.453,23.156,18.679z"/>
</g>
</svg>
